<?xml version="1.0" encoding="UTF-8" standalone="no"?>
<!-- Created with Inkscape (http://www.inkscape.org/) -->

<svg
   width="50mm"
   height="50mm"
   viewBox="0 0 50 50"
   version="1.1"
   id="svg1"
   inkscape:version="1.3.2 (091e20e, 2023-11-25, custom)"
   sodipodi:docname="knob.svg"
   xmlns:inkscape="http://www.inkscape.org/namespaces/inkscape"
   xmlns:sodipodi="http://sodipodi.sourceforge.net/DTD/sodipodi-0.dtd"
   xmlns="http://www.w3.org/2000/svg"
   xmlns:svg="http://www.w3.org/2000/svg">
  <sodipodi:namedview
     id="namedview1"
     pagecolor="#ffffff"
     bordercolor="#000000"
     borderopacity="0.25"
     inkscape:showpageshadow="2"
     inkscape:pageopacity="0.0"
     inkscape:pagecheckerboard="0"
     inkscape:deskcolor="#d1d1d1"
     inkscape:document-units="mm"
     inkscape:zoom="1.4485269"
     inkscape:cx="99.411337"
     inkscape:cy="63.857977"
     inkscape:window-width="1920"
     inkscape:window-height="1009"
     inkscape:window-x="-8"
     inkscape:window-y="-8"
     inkscape:window-maximized="1"
     inkscape:current-layer="layer1" />
  <defs
     id="defs1" />
  <g
     inkscape:label="Layer 1"
     inkscape:groupmode="layer"
     id="layer1">
    <circle
       style="fill:#ff7800;fill-opacity:1;fill-rule:evenodd;stroke:#000000;stroke-width:4.92986;stroke-linejoin:round;stroke-dasharray:none;stroke-opacity:1"
       id="path5"
       cx="25"
       cy="25"
       r="22.411692" />
    <path
       sodipodi:type="star"
       style="fill:#502600;fill-opacity:1;fill-rule:evenodd;stroke:#000000;stroke-width:2.35767;stroke-linejoin:round;stroke-dasharray:none;stroke-opacity:1"
       id="path7"
       inkscape:flatsided="false"
       sodipodi:sides="22"
       sodipodi:cx="25.023985"
       sodipodi:cy="24.476015"
       sodipodi:r1="15.886944"
       sodipodi:r2="11.203385"
       sodipodi:arg1="1.2672256"
       sodipodi:arg2="1.4100253"
       inkscape:rounded="0.03345528"
       inkscape:randomized="0"
       d="m 29.773062,39.636531 c -0.161403,0.05056 -2.788691,-4.128683 -2.955646,-4.101608 -0.166955,0.02708 -1.338827,4.822431 -1.507936,4.82547 -0.169109,0.003 -1.512545,-4.747107 -1.680365,-4.768165 -0.167821,-0.02106 -2.643231,4.249897 -2.806346,4.20517 -0.163115,-0.04473 -0.113862,-4.98095 -0.268951,-5.048435 -0.15509,-0.06749 -3.733496,3.333062 -3.877403,3.244192 -0.143906,-0.08887 1.294047,-4.811265 1.164252,-4.919711 -0.129794,-0.108445 -4.521295,2.146203 -4.634335,2.02039 -0.11304,-0.125814 2.597119,-4.2518 2.503134,-4.39242 -0.09398,-0.140621 -4.942806,0.78547 -5.015821,0.632906 -0.07301,-0.152564 3.689787,-3.347879 3.639227,-3.509282 -0.05056,-0.161402 -4.96388,-0.638896 -4.9909552,-0.805851 -0.027075,-0.166955 4.4835312,-2.172733 4.4804922,-2.341842 -0.003,-0.169109 -4.5828108,-2.011503 -4.5617526,-2.179323 0.021058,-0.167821 4.9140466,-0.821566 4.9587736,-0.984681 0.04473,-0.163115 -3.830469,-3.22115 -3.762983,-3.37624 0.06749,-0.155089 4.946455,0.596161 5.035325,0.452254 0.08887,-0.143907 -2.767805,-4.169838 -2.659359,-4.299633 0.108446,-0.129794 4.578131,1.965589 4.703945,1.852549 0.125813,-0.113039 -1.480911,-4.780711 -1.34029,-4.874695 0.14062,-0.09398 3.838914,3.175778 3.991478,3.102762 0.152564,-0.07301 -0.07404,-5.0042792 0.08736,-5.0548391 0.161402,-0.05056 2.788691,4.1286831 2.955646,4.1016081 0.166955,-0.02707 1.338827,-4.8224308 1.507936,-4.8254703 0.169109,-0.00304 1.512545,4.7471073 1.680365,4.7681663 0.16782,0.02106 2.643231,-4.2498978 2.806346,-4.2051706 0.163115,0.044727 0.113861,4.9809496 0.268951,5.0484356 0.15509,0.06748 3.733496,-3.333063 3.877402,-3.244193 0.143907,0.08887 -1.294046,4.811265 -1.164251,4.919711 0.129794,0.108446 4.521295,-2.146203 4.634335,-2.020389 0.113039,0.125813 -2.597119,4.251799 -2.503135,4.39242 0.09398,0.14062 4.942807,-0.785471 5.015822,-0.632907 0.07301,0.152565 -3.689787,3.347879 -3.639228,3.509282 0.05056,0.161403 4.963881,0.638896 4.990956,0.805851 0.02708,0.166955 -4.483531,2.172733 -4.480492,2.341842 0.003,0.169109 4.582811,2.011503 4.561752,2.179324 -0.02106,0.16782 -4.914046,0.821565 -4.958773,0.98468 -0.04473,0.163116 3.830468,3.22115 3.762983,3.37624 -0.06749,0.155089 -4.946455,-0.596161 -5.035326,-0.452254 -0.08887,0.143907 2.767805,4.169838 2.65936,4.299633 -0.108446,0.129794 -4.578131,-1.965589 -4.703945,-1.852549 -0.125814,0.11304 1.48091,4.780711 1.34029,4.874695 -0.14062,0.09398 -3.838914,-3.175777 -3.991478,-3.102762 -0.152565,0.07302 0.07404,5.004279 -0.08736,5.054839 z"
       transform="matrix(0.86038229,0,0,0.86038229,3.4698066,3.9412701)" />
  </g>
</svg>
