<?xml version="1.0" encoding="UTF-8" standalone="no"?>
<!-- Created with Inkscape (http://www.inkscape.org/) -->

<svg
   width="100mm"
   height="100mm"
   viewBox="0 0 100 100"
   version="1.1"
   id="svg1"
   inkscape:version="1.3.2 (091e20e, 2023-11-25, custom)"
   sodipodi:docname="pad-and-knob.svg"
   xmlns:inkscape="http://www.inkscape.org/namespaces/inkscape"
   xmlns:sodipodi="http://sodipodi.sourceforge.net/DTD/sodipodi-0.dtd"
   xmlns="http://www.w3.org/2000/svg"
   xmlns:svg="http://www.w3.org/2000/svg">
  <sodipodi:namedview
     id="namedview1"
     pagecolor="#ffffff"
     bordercolor="#000000"
     borderopacity="0.25"
     inkscape:showpageshadow="2"
     inkscape:pageopacity="0.0"
     inkscape:pagecheckerboard="0"
     inkscape:deskcolor="#d1d1d1"
     inkscape:document-units="mm"
     inkscape:zoom="1.4485269"
     inkscape:cx="146.35558"
     inkscape:cy="173.62467"
     inkscape:window-width="1920"
     inkscape:window-height="1009"
     inkscape:window-x="-8"
     inkscape:window-y="-8"
     inkscape:window-maximized="1"
     inkscape:current-layer="layer1" />
  <defs
     id="defs1" />
  <g
     inkscape:label="Layer 1"
     inkscape:groupmode="layer"
     id="layer1">
    <circle
       style="fill:#383838;fill-opacity:1;fill-rule:evenodd;stroke:#131313;stroke-width:3.02673;stroke-linejoin:round;stroke-dasharray:none;stroke-opacity:1"
       id="path1"
       cx="-50"
       cy="-50"
       transform="scale(-1)"
       r="31.696964" />
    <g
       id="g4"
       style="fill:#5e4d31;fill-opacity:1;stroke:#262626;stroke-width:5;stroke-dasharray:none;stroke-opacity:1"
       transform="matrix(0.67260803,0,0,0.67260803,-23.468159,-36.736651)">
      <g
         id="g3"
         transform="rotate(180,110.45322,128.90171)"
         style="fill:#5e4d31;fill-opacity:1;stroke:#262626;stroke-width:5;stroke-dasharray:none;stroke-opacity:1">
        <path
           sodipodi:type="star"
           style="fill:#5e4d31;fill-opacity:1;fill-rule:evenodd;stroke:#262626;stroke-width:6.60458;stroke-linejoin:round;stroke-dasharray:none;stroke-opacity:1"
           id="path2"
           inkscape:flatsided="false"
           sodipodi:sides="3"
           sodipodi:cx="89.377258"
           sodipodi:cy="118.0503"
           sodipodi:r1="17.231812"
           sodipodi:r2="8.6159058"
           sodipodi:arg1="0.52359878"
           sodipodi:arg2="1.5707963"
           inkscape:rounded="0"
           inkscape:randomized="0"
           d="m 104.30044,126.66621 -14.923181,0 -14.923187,0 7.461593,-12.92386 7.461593,-12.92386 7.461593,12.92386 z"
           inkscape:transform-center-y="-3.2613383"
           transform="matrix(0.7570504,0,0,0.7570504,43.588835,13.246966)"
           inkscape:transform-center-x="-1.7925364e-06" />
        <path
           sodipodi:type="star"
           style="fill:#5e4d31;fill-opacity:1;fill-rule:evenodd;stroke:#262626;stroke-width:6.60458;stroke-linejoin:round;stroke-dasharray:none;stroke-opacity:1"
           id="path2-2"
           inkscape:flatsided="false"
           sodipodi:sides="3"
           sodipodi:cx="89.377258"
           sodipodi:cy="118.0503"
           sodipodi:r1="17.231812"
           sodipodi:r2="8.6159058"
           sodipodi:arg1="0.52359878"
           sodipodi:arg2="1.5707963"
           inkscape:rounded="0"
           inkscape:randomized="0"
           d="m 104.30044,126.66621 -14.923181,0 -14.923187,0 7.461593,-12.92386 7.461593,-12.92386 7.461593,12.92386 z"
           inkscape:transform-center-y="3.2613349"
           transform="matrix(-0.7570504,0,0,-0.7570504,179.76648,244.44844)" />
      </g>
      <g
         id="g2"
         transform="matrix(-1,0,0,1,253.04682,34.388101)"
         style="fill:#5e4d31;fill-opacity:1;stroke:#262626;stroke-width:5;stroke-dasharray:none;stroke-opacity:1">
        <path
           sodipodi:type="star"
           style="fill:#5e4d31;fill-opacity:1;fill-rule:evenodd;stroke:#262626;stroke-width:6.60458;stroke-linejoin:round;stroke-dasharray:none;stroke-opacity:1"
           id="path2-0"
           inkscape:flatsided="false"
           sodipodi:sides="3"
           sodipodi:cx="89.377258"
           sodipodi:cy="118.0503"
           sodipodi:r1="17.231812"
           sodipodi:r2="8.6159058"
           sodipodi:arg1="0.52359878"
           sodipodi:arg2="1.5707963"
           inkscape:rounded="0"
           inkscape:randomized="0"
           d="m 104.30044,126.66621 -14.923181,0 -14.923187,0 7.461593,-12.92386 7.461593,-12.92386 7.461593,12.92386 z"
           transform="matrix(0,-0.7570504,0.7570504,0,28.217297,162.65644)"
           inkscape:transform-center-x="3.2613385" />
        <path
           sodipodi:type="star"
           style="fill:#5e4d31;fill-opacity:1;fill-rule:evenodd;stroke:#262626;stroke-width:6.60458;stroke-linejoin:round;stroke-dasharray:none;stroke-opacity:1"
           id="path2-2-9"
           inkscape:flatsided="false"
           sodipodi:sides="3"
           sodipodi:cx="89.377258"
           sodipodi:cy="118.0503"
           sodipodi:r1="17.231812"
           sodipodi:r2="8.6159058"
           sodipodi:arg1="0.52359878"
           sodipodi:arg2="1.5707963"
           inkscape:rounded="0"
           inkscape:randomized="0"
           d="m 104.30044,126.66621 -14.923181,0 -14.923187,0 7.461593,-12.92386 7.461593,-12.92386 7.461593,12.92386 z"
           transform="matrix(0,0.7570504,-0.7570504,0,259.41877,26.478796)"
           inkscape:transform-center-x="-3.2613304" />
      </g>
    </g>
    <circle
       style="fill:#ff7800;fill-opacity:1;fill-rule:evenodd;stroke:#000000;stroke-width:3.31722;stroke-linejoin:round;stroke-dasharray:none;stroke-opacity:1"
       id="path5"
       cx="50"
       cy="50"
       r="15.080452" />
    <path
       sodipodi:type="star"
       style="fill:#7f4400;fill-opacity:1;fill-rule:evenodd;stroke:#050000;stroke-width:2.35767;stroke-linejoin:round;stroke-dasharray:none;stroke-opacity:1"
       id="path7"
       inkscape:flatsided="false"
       sodipodi:sides="13"
       sodipodi:cx="25.023985"
       sodipodi:cy="24.476015"
       sodipodi:r1="15.886944"
       sodipodi:r2="11.921167"
       sodipodi:arg1="1.2672256"
       sodipodi:arg2="1.5011738"
       inkscape:rounded="0.64666059"
       inkscape:randomized="0"
       d="m 29.773062,39.636531 c -3.141637,1.010805 -0.625845,-3.472413 -3.919766,-3.26823 -3.381183,0.209593 -0.331991,4.318626 -3.669655,3.738691 -3.251526,-0.564969 1.059553,-3.365514 -1.951958,-4.71548 -3.091292,-1.385729 -2.300929,3.669669 -4.986775,1.605072 -2.616529,-2.011314 2.50222,-2.487616 0.46302,-5.08247 -2.093223,-2.663597 -3.742752,2.180035 -5.161484,-0.89625 -1.3821173,-2.996891 3.371659,-1.039834 2.771925,-4.285127 -0.615621,-3.331267 -4.3271548,0.190982 -4.1537589,-3.192251 0.1689208,-3.295917 3.4686909,0.64616 4.4458159,-2.506114 1.003011,-3.235784 -3.9202592,-1.841823 -2.194458,-4.756946 1.681261,-2.839888 2.771087,2.184128 5.101224,-0.15298 2.391866,-2.399022 -2.61528,-3.452688 0.267566,-5.231881 2.808445,-1.733276 1.438662,3.221737 4.588003,2.235199 3.232774,-1.012672 -0.71117,-4.2725846 2.668295,-4.5082566 3.292248,-0.2295897 -0.223344,3.5212856 3.023726,4.1113226 3.333091,0.605667 1.355859,-4.1136837 4.457749,-2.7518449 3.021837,1.3266919 -1.834184,3.0141509 0.76675,5.0455909 2.669838,2.085256 3.112277,-3.012387 5.225987,-0.365018 2.059158,2.579045 -3.024836,1.816509 -1.66588,4.823975 1.394957,3.087138 4.155711,-1.220989 4.797014,2.105429 0.624752,3.24057 -3.522533,0.202729 -3.716876,3.497245 -0.199492,3.381794 4.24712,0.850123 3.269102,4.093549 -0.952777,3.159719 -3.21326,-1.457496 -4.916381,1.369338 -1.748239,2.901721 3.365567,2.726482 0.99228,5.143885 -2.312037,2.355015 -2.167869,-2.783825 -4.989602,-1.072268 -2.896487,1.7569 1.713002,3.978237 -1.511863,5.01582 z"
       transform="matrix(0.57893682,0,0,0.57893682,35.56404,35.881708)" />
    <circle
       style="fill:#ff7800;fill-opacity:1;fill-rule:evenodd;stroke:#000000;stroke-width:1.54161;stroke-linejoin:round;stroke-opacity:1"
       id="path1-1"
       cx="50"
       cy="50"
       r="3.3698158" />
  </g>
</svg>
