<?xml version="1.0" encoding="UTF-8" standalone="no"?>
<!-- Created with Inkscape (http://www.inkscape.org/) -->

<svg
   width="100mm"
   height="100mm"
   viewBox="0 0 100 100"
   version="1.1"
   id="svg1"
   inkscape:version="1.3.2 (091e20e, 2023-11-25, custom)"
   sodipodi:docname="question.svg"
   xmlns:inkscape="http://www.inkscape.org/namespaces/inkscape"
   xmlns:sodipodi="http://sodipodi.sourceforge.net/DTD/sodipodi-0.dtd"
   xmlns="http://www.w3.org/2000/svg"
   xmlns:svg="http://www.w3.org/2000/svg">
  <sodipodi:namedview
     id="namedview1"
     pagecolor="#3d3d3d"
     bordercolor="#000000"
     borderopacity="0.25"
     inkscape:showpageshadow="2"
     inkscape:pageopacity="0.0"
     inkscape:pagecheckerboard="0"
     inkscape:deskcolor="#d1d1d1"
     inkscape:document-units="mm"
     inkscape:zoom="0.72426347"
     inkscape:cx="396.26464"
     inkscape:cy="561.25984"
     inkscape:window-width="1920"
     inkscape:window-height="1009"
     inkscape:window-x="-8"
     inkscape:window-y="-8"
     inkscape:window-maximized="1"
     inkscape:current-layer="layer1" />
  <defs
     id="defs1" />
  <g
     inkscape:label="Layer 1"
     inkscape:groupmode="layer"
     id="layer1">
    <path
       style="font-weight:bold;font-size:136.33px;line-height:0.9;font-family:Calibri;-inkscape-font-specification:'Calibri Bold';text-align:center;text-anchor:middle;fill:#ffffff;fill-rule:evenodd;stroke-width:27.5684;stroke-linecap:round;stroke-linejoin:round"
       d="m 64.854584,42.518626 q 0,5.458525 -1.597617,9.851973 -1.53105,4.393447 -4.393448,7.588681 -2.79583,3.195235 -6.789873,5.125689 -3.927475,1.930454 -8.720327,2.462993 l -0.532539,12.98064 q -0.06657,1.198213 -1.930454,1.797319 -1.79732,0.599107 -5.258824,0.599107 -2.196723,0 -3.727773,-0.06657 -1.464482,-0.133134 -2.329858,-0.399404 -0.865376,-0.266269 -1.264781,-0.732241 -0.399404,-0.465972 -0.465971,-1.198213 L 27.244012,64.818699 q -0.06657,-2.130156 0.199702,-3.461504 0.26627,-1.331347 0.931944,-2.130156 0.732241,-0.798808 1.797319,-1.065078 1.065078,-0.332837 2.529561,-0.332837 h 0.931943 q 3.528071,0 6.057632,-1.131645 2.596128,-1.131646 4.260312,-2.995533 1.664185,-1.863886 2.396426,-4.393447 0.798809,-2.529561 0.798809,-5.391958 0,-3.195235 -0.931944,-5.85793 -0.865375,-2.662695 -2.729262,-4.593149 -1.79732,-1.930454 -4.59315,-2.928965 -2.729262,-1.065078 -6.457036,-1.065078 -3.394936,0 -5.991064,0.665673 -2.596128,0.665674 -4.460015,1.464483 -1.863887,0.798809 -3.128667,1.464482 -1.198213,0.665674 -1.863887,0.665674 -0.465972,0 -0.865376,-0.266269 -0.399404,-0.332837 -0.665674,-1.131646 -0.266269,-0.798808 -0.465971,-2.263291 -0.133135,-1.464482 -0.133135,-3.727773 0,-2.329859 0.199702,-3.394937 0.199702,-1.065078 0.865376,-1.730752 0.665674,-0.665674 2.52956,-1.53105 1.863887,-0.931943 4.460015,-1.664184 2.596128,-0.798809 5.791363,-1.331348 3.195234,-0.532539 6.656738,-0.532539 7.854951,0 13.446611,2.196724 5.591661,2.130156 9.119732,5.791362 3.594639,3.661206 5.258823,8.38749 1.664185,4.726285 1.664185,9.985108 z M 45.150638,99.566874 q 0,2.729266 -0.465971,4.593146 -0.399405,1.86389 -1.53105,2.99554 -1.065078,1.13164 -2.928965,1.59761 -1.797319,0.53254 -4.460015,0.53254 -2.79583,0 -4.593149,-0.53254 -1.79732,-0.46597 -2.928965,-1.59761 -1.065078,-1.13165 -1.53105,-2.99554 -0.399404,-1.86388 -0.399404,-4.593146 0,-2.79583 0.399404,-4.659717 0.465972,-1.930454 1.53105,-3.0621 1.131645,-1.198213 2.928965,-1.664184 1.797319,-0.53254 4.593149,-0.53254 2.662696,0 4.460015,0.53254 1.863887,0.465971 2.928965,1.664184 1.131645,1.131646 1.53105,3.0621 0.465971,1.863887 0.465971,4.659717 z"
       id="text1"
       transform="scale(1.2544366,0.79717061)"
       aria-label="?" />
  </g>
</svg>
